<svg xmlns="http://www.w3.org/2000/svg" xmlns:xlink="http://www.w3.org/1999/xlink"><defs><symbol viewBox="0 0 17 29" id="arrow"><path d="M15.894 13.632L2.336.237a.818.818 0 00-1.15 0 .794.794 0 000 1.136l12.98 12.824-12.98 12.825a.794.794 0 000 1.136.823.823 0 00.572.238.798.798 0 00.572-.238l13.558-13.395c.319-.31.319-.822.006-1.131z" /></symbol><symbol viewBox="0 0 12 8" id="arrow-drop"><path fill-rule="evenodd" clip-rule="evenodd" d="M1.4 7.4L6 2.8l4.6 4.6L12 6 6 0 0 6l1.4 1.4z" /></symbol><symbol viewBox="0 0 6 9" id="arrow-small"><path d="M.229 7.888a.591.591 0 00-.025.912.809.809 0 001.039.022L5.79 4.96a.61.61 0 00-.025-.942L1.243.178A.809.809 0 00.203.2a.591.591 0 00.024.912l3.486 3.01a.5.5 0 010 .757L.229 7.888z" /></symbol><symbol viewBox="0 0 30 23" id="cart"><path d="M29.999 0l-.929 2.5H26.66l-4.342 15H5.767L0 3.75h21.015l-.705 2.5H3.759L7.43 15h13.035l4.29-15H30zM10.624 18.75a1.876 1.876 0 10.001 3.751 1.876 1.876 0 00-.001-3.751zM19.249 10l-2.375 8.75a1.875 1.875 0 100 3.75 1.875 1.875 0 000-3.75L19.249 10z" /></symbol><symbol viewBox="0 0 20 28" id="comparison"><rect x="16" y="15.771" width="4" height="11.726" rx="2" /><rect x="8" y=".528" width="4" height="26.969" rx="2" /><rect y="9.908" width="4" height="17.588" rx="2" /></symbol><symbol viewBox="0 0 18 17" id="delivery"><path d="M11.17 3.143h5.901v12.021c0 .518-.465.836-.97.836H1.893C1.388 16 1 15.602 1 15.084V3.143h5.823" stroke-width="1.5" stroke-miterlimit="10" /><path d="M11.385 3.143h5.632c.038 0 .077-.032.038-.064L14.958 1H3.113L1.016 3.079c-.039.032 0 .064.039.064h5.631" stroke-width="1.5" stroke-miterlimit="10" /><path d="M11.714 3.143L10.782 1h-3.4L6.357 3.143M11.714 3.143v4.286l-2.61-1.506-2.747 1.506V3.143M10.986 11.714H7.122c-.443 0-.765-.438-.765-.925v-.292c0-.536.362-.926.765-.926h3.824c.443 0 .765.439.765.926v.292c.04.536-.322.925-.725.925z" stroke-width="1.5" stroke-miterlimit="10" /></symbol><symbol viewBox="0 0 30 30" id="fb"><path d="M17.419 29.805zM17.719 29.753c-.06.012-.12.022-.18.032.06-.01.12-.02.18-.032zM16.707 29.903zM16.995 29.867zM18.127 29.672zM19.14 29.42c-.042.013-.085.024-.127.036l.127-.035zM18.834 29.505l-.14.036.14-.037zM18.433 29.605l-.148.033.148-.033zM16.262 29.947zM30 15c0-8.283-6.717-15-15-15C6.717 0 0 6.717 0 15c0 8.283 6.717 15 15 15l.264-.003V18.32H12.04v-3.756h3.223V11.8c0-3.205 1.956-4.95 4.816-4.95 1.369 0 2.546.103 2.889.148v3.35h-1.972c-1.555 0-1.857.74-1.857 1.824v2.392h3.72l-.485 3.756H19.14v11.1C25.41 27.623 30 21.848 30 15zM15.991 29.967zM15.513 29.99z" /></symbol><symbol viewBox="0 0 23 21" id="grid-filter"><path stroke-width="2" d="M1 1h21v19H1z" /><path stroke-width="2" d="M7 6h2v2H7zM7 13h2v2H7zM14 6h2v2h-2zM14 13h2v2h-2z" /></symbol><symbol viewBox="0 0 24 22" id="heart"><path d="M12 8.229c.234-1.12 1.547-6.23 5.382-6.23C19.602 2 22 3.552 22 7.004c0 3.907-3.627 8.47-10 12.629-6.373-4.16-10-8.722-10-12.63C2 3.52 4.369 1.999 6.577 1.999c3.923 0 5.145 5.126 5.423 6.23zM0 7.003C0 11.07 3.06 16.483 12 22c8.94-5.516 12-10.93 12-14.997 0-7.962-9.648-9.028-12-3.737C9.662-1.996 0-1.004 0 7.003z" /></symbol><symbol viewBox="0 0 24 22" id="heart-filled"><path d="M12 3.435C10.011-1.964 0-1.162 0 7.003 0 11.071 3.06 16.484 12 22c8.94-5.516 12-10.929 12-14.997 0-8.118-10-8.999-12-3.568z" /></symbol><symbol viewBox="0 0 30 30" id="insta"><g clip-path="url(#insta_clip0)"><path d="M15.005 7.297a7.697 7.697 0 00-7.698 7.698 7.697 7.697 0 007.698 7.697 7.697 7.697 0 007.697-7.697 7.697 7.697 0 00-7.697-7.698zm0 12.694a4.995 4.995 0 01-4.997-4.996 4.995 4.995 0 014.997-4.996A4.995 4.995 0 0120 14.995a4.994 4.994 0 01-4.996 4.996z" /><path d="M21.185.095c-2.76-.128-9.596-.122-12.359 0C6.4.21 4.257.795 2.531 2.522-.354 5.407.015 9.294.015 14.996c0 5.835-.325 9.632 2.516 12.473 2.896 2.895 6.84 2.516 12.474 2.516 5.78 0 7.775.004 9.818-.787 2.78-1.079 4.877-3.563 5.082-8.024.13-2.761.122-9.596 0-12.359-.248-5.266-3.074-8.46-8.72-8.72zm4.369 25.466c-1.892 1.89-4.515 1.722-10.585 1.722-6.25 0-8.757.092-10.585-1.741-2.107-2.097-1.725-5.463-1.725-10.567 0-6.906-.71-11.88 6.222-12.235 1.592-.056 2.061-.075 6.07-.075l.056.038c6.662 0 11.888-.698 12.202 6.232.07 1.582.087 2.057.087 6.06-.001 6.177.116 8.698-1.742 10.566z" /><path d="M23.008 8.792a1.799 1.799 0 100-3.597 1.799 1.799 0 000 3.597z" /></g><defs></defs></symbol><clipPath id="insta_clip0"><path d="M0 0h30v30H0z" /></clipPath><symbol viewBox="0 0 25 19" id="list-filter"><g><rect x="6" width="19" height="3" rx="1.5" /><rect x="6" y="8" width="19" height="3" rx="1.5" /><rect x="6" y="16" width="19" height="3" rx="1.5" /><rect width="3" height="3" rx="1.5" /><rect y="8" width="3" height="3" rx="1.5" /><rect y="16" width="3" height="3" rx="1.5" /></g></symbol><symbol viewBox="0 0 30 30" id="location"><path d="M14.994 0C8.365 0 2.969 5.396 2.969 12.025c0 .755.069 1.516.214 2.258a11.842 11.842 0 00.887 2.774c1.295 3.05 4.144 7.735 10.396 12.754a.854.854 0 001.069 0c6.245-5.018 9.1-9.704 10.396-12.754a11.705 11.705 0 00.887-2.774c.138-.742.214-1.503.214-2.258C27.019 5.396 21.622 0 14.994 0zm10.138 13.987c0 .013-.006.026-.006.038-.006.032-.025.126-.057.27v.013a9.993 9.993 0 01-.698 2.05c-.006.007-.006.02-.012.026-1.176 2.786-3.755 7.037-9.365 11.673-5.61-4.636-8.189-8.887-9.365-11.673-.006-.007-.006-.02-.012-.026a10.651 10.651 0 01-.699-2.05v-.012c-.037-.145-.05-.24-.056-.27 0-.013-.006-.026-.006-.045a10.271 10.271 0 01-.19-1.962c0-5.692 4.636-10.327 10.328-10.327 5.692 0 10.327 4.635 10.327 10.327 0 .666-.063 1.327-.189 1.968z" /><path d="M14.994 4.522c-4.207 0-7.635 3.428-7.635 7.635 0 4.208 3.428 7.635 7.635 7.635 4.208 0 7.635-3.427 7.635-7.635 0-4.207-3.427-7.635-7.635-7.635zm0 13.572a5.944 5.944 0 01-5.937-5.937 5.948 5.948 0 015.937-5.937 5.948 5.948 0 015.937 5.937c0 3.27-2.66 5.937-5.937 5.937z" /></symbol><symbol viewBox="0 0 80 76" id="logo"><path d="M.9 70c-.067 0-.1-.033-.1-.1l.04-13.74c0-.053.027-.08.08-.08l3.74-.02c.733-.013 1.4.16 2 .52.613.36 1.1.847 1.46 1.46.36.6.54 1.267.54 2v5.74c0 .773-.187 1.48-.56 2.12a4.253 4.253 0 01-1.5 1.5c-.627.373-1.333.567-2.12.58L.9 70zm2.34-2.46h1.24a1.65 1.65 0 001.24-.52c.347-.347.52-.76.52-1.24v-5.76c0-.427-.16-.793-.48-1.1a1.406 1.406 0 00-1.1-.46l-1.4.02-.02 9.06zM10.314 70c-.054 0-.08-.033-.08-.1l.04-13.74c0-.053.026-.08.08-.08h4.04c.72 0 1.38.18 1.98.54.613.347 1.1.82 1.46 1.42.36.587.54 1.253.54 2 0 .493-.074.94-.22 1.34-.147.387-.32.72-.52 1-.2.267-.38.467-.54.6.72.8 1.08 1.74 1.08 2.82l.02 4.1c0 .067-.034.1-.1.1h-2.26c-.054 0-.08-.02-.08-.06V65.8c0-.48-.174-.893-.52-1.24a1.622 1.622 0 00-1.24-.54h-1.32l-.02 5.88c0 .067-.027.1-.08.1h-2.26zm2.36-8.38h1.72c.413 0 .78-.153 1.1-.46.32-.307.48-.68.48-1.12 0-.427-.16-.793-.48-1.1a1.5 1.5 0 00-1.1-.46h-1.72v3.14zM19.982 70c-.067 0-.1-.033-.1-.1l.02-13.74c0-.053.027-.08.08-.08h2.24c.053 0 .08.027.08.08l.02 13.74c0 .067-.027.1-.08.1h-2.26zm6.34 0c-.054 0-.087-.033-.1-.1l-2.76-13.74c-.014-.053.013-.08.08-.08h2.26c.053 0 .086.027.1.08l1.64 9.16 1.6-9.16c.013-.053.046-.08.1-.08h2.24c.066 0 .093.027.08.08l-2.72 13.74c-.014.067-.047.1-.1.1h-2.42zm6.492 0c-.054 0-.08-.033-.08-.1l.02-13.74c0-.053.026-.08.08-.08h6.42c.053 0 .08.033.08.1v2.24c0 .053-.027.08-.08.08h-4.1v3.12h4.1c.053 0 .08.027.08.08l.02 2.26c0 .053-.027.08-.08.08h-4.12v3.5h4.12c.053 0 .08.033.08.1v2.28c0 .053-.027.08-.08.08h-6.46zm11.367 0c-.054 0-.08-.033-.08-.1l.04-13.74c0-.053.026-.08.08-.08h2.44c.053 0 .1.027.14.08l1.82 2.64 1.82-2.64c.04-.053.086-.08.14-.08h2.46c.053 0 .08.027.08.08l.04 13.74c0 .067-.027.1-.08.1h-2.26c-.054 0-.08-.033-.08-.1l-.02-10.2-2.1 3.04-2.08-3.04-.02 10.2c0 .067-.027.1-.08.1h-2.26zm14.362.2c-.72 0-1.38-.18-1.98-.54a4.373 4.373 0 01-1.42-1.46 3.918 3.918 0 01-.54-2.02l.02-6.34c0-.733.173-1.4.52-2 .36-.6.84-1.08 1.44-1.44a3.74 3.74 0 011.96-.54c.72 0 1.373.18 1.96.54.587.36 1.053.84 1.4 1.44.36.6.54 1.267.54 2l.02 6.34c0 .733-.18 1.407-.54 2.02-.347.6-.82 1.087-1.42 1.46-.587.36-1.24.54-1.96.54zm0-2.42c.4 0 .747-.16 1.04-.48.307-.333.46-.707.46-1.12l-.02-6.34c0-.44-.14-.813-.42-1.12a1.374 1.374 0 00-1.06-.46c-.413 0-.767.153-1.06.46-.293.293-.44.667-.44 1.12v6.34c0 .44.147.82.44 1.14.293.307.647.46 1.06.46zM65.73 70c-.054 0-.08-.033-.08-.1V58.5h-2.6c-.067 0-.1-.033-.1-.1l.02-2.24c0-.053.026-.08.08-.08h7.6c.066 0 .1.027.1.08v2.24c0 .067-.027.1-.08.1h-2.62l.02 11.4c0 .067-.027.1-.08.1h-2.26zm9.258.2c-.72 0-1.38-.18-1.98-.54a4.373 4.373 0 01-1.42-1.46 3.918 3.918 0 01-.54-2.02l.02-6.34c0-.733.174-1.4.52-2 .36-.6.84-1.08 1.44-1.44a3.74 3.74 0 011.96-.54c.72 0 1.374.18 1.96.54.587.36 1.054.84 1.4 1.44.36.6.54 1.267.54 2l.02 6.34c0 .733-.18 1.407-.54 2.02-.346.6-.82 1.087-1.42 1.46-.586.36-1.24.54-1.96.54zm0-2.42c.4 0 .747-.16 1.04-.48.307-.333.46-.707.46-1.12l-.02-6.34c0-.44-.14-.813-.42-1.12a1.374 1.374 0 00-1.06-.46c-.413 0-.766.153-1.06.46-.293.293-.44.667-.44 1.12v6.34c0 .44.147.82.44 1.14.294.307.647.46 1.06.46zM59.044 7.956a2.07 2.07 0 00-2.63-.247c-3.098 2.112-18.636 12.73-20.306 14.4a6.218 6.218 0 000 8.783 6.192 6.192 0 004.392 1.816c1.59 0 3.181-.605 4.392-1.816 1.67-1.67 12.287-17.208 14.399-20.306a2.07 2.07 0 00-.247-2.63zm-17.08 20.008a2.072 2.072 0 01-2.928 0 2.072 2.072 0 010-2.927c.649-.642 5.06-3.788 10.488-7.56-3.773 5.427-6.92 9.838-7.56 10.487z" /><path d="M23.547 36.13l-2.556 1.246a22.25 22.25 0 01-1.395-18.814l2.929 1.405a2.07 2.07 0 001.79-3.733l-2.891-1.387c3.594-5.862 9.812-9.948 17.006-10.611V7.35a2.07 2.07 0 104.14 0V4.234c2.467.225 4.854.853 7.12 1.875a2.07 2.07 0 001.703-3.773A26.299 26.299 0 0040.5 0c-7.078 0-13.733 2.756-18.738 7.762C16.756 12.767 14 19.422 14 26.5c0 5.23 1.553 10.318 4.49 14.711a2.07 2.07 0 002.629.71l4.244-2.07a2.07 2.07 0 10-1.816-3.722zM64.664 15.607a2.07 2.07 0 10-3.773 1.704 22.181 22.181 0 011.968 9.189c0 3.82-.984 7.55-2.86 10.892l-2.668-1.27a2.07 2.07 0 00-1.78 3.738l4.348 2.07a2.07 2.07 0 002.611-.719C65.448 36.818 67 31.731 67 26.5c0-3.795-.786-7.46-2.336-10.893z" /></symbol><symbol viewBox="0 0 79 16" id="logo-mob"><path d="M.267 15c-.066 0-.1-.033-.1-.1l.04-13.74c0-.053.027-.08.08-.08l3.74-.02c.734-.013 1.4.16 2 .52.614.36 1.1.847 1.46 1.46.36.6.54 1.267.54 2v5.74c0 .773-.186 1.48-.56 2.12a4.254 4.254 0 01-1.5 1.5c-.626.373-1.333.567-2.12.58L.267 15zm2.34-2.46h1.24a1.65 1.65 0 001.24-.52c.347-.347.52-.76.52-1.24V5.02c0-.427-.16-.793-.48-1.1a1.405 1.405 0 00-1.1-.46l-1.4.02-.02 9.06zM9.681 15c-.054 0-.08-.033-.08-.1l.04-13.74c0-.053.026-.08.08-.08h4.04c.72 0 1.38.18 1.98.54.613.347 1.1.82 1.46 1.42.36.587.54 1.253.54 2 0 .493-.074.94-.22 1.34-.147.387-.32.72-.52 1-.2.267-.38.467-.54.6.72.8 1.08 1.74 1.08 2.82l.02 4.1c0 .067-.034.1-.1.1H15.2c-.054 0-.08-.02-.08-.06V10.8c0-.48-.174-.893-.52-1.24a1.622 1.622 0 00-1.24-.54h-1.32l-.02 5.88c0 .067-.027.1-.08.1H9.68zm2.36-8.38h1.72c.413 0 .78-.153 1.1-.46.32-.307.48-.68.48-1.12 0-.427-.16-.793-.48-1.1a1.501 1.501 0 00-1.1-.46h-1.72v3.14zM19.349 15c-.066 0-.1-.033-.1-.1l.02-13.74c0-.053.027-.08.08-.08h2.24c.054 0 .08.027.08.08l.02 13.74c0 .067-.026.1-.08.1h-2.26zm6.34 0c-.054 0-.087-.033-.1-.1l-2.76-13.74c-.014-.053.013-.08.08-.08h2.26c.053 0 .086.027.1.08l1.64 9.16 1.6-9.16c.013-.053.046-.08.1-.08h2.24c.066 0 .093.027.08.08l-2.72 13.74c-.014.067-.047.1-.1.1h-2.42zm6.492 0c-.054 0-.08-.033-.08-.1l.02-13.74c0-.053.026-.08.08-.08h6.42c.053 0 .08.033.08.1v2.24c0 .053-.027.08-.08.08h-4.1v3.12h4.1c.053 0 .08.027.08.08l.02 2.26c0 .053-.027.08-.08.08h-4.12v3.5h4.12c.053 0 .08.033.08.1v2.28c0 .053-.027.08-.08.08h-6.46zm11.367 0c-.053 0-.08-.033-.08-.1l.04-13.74c0-.053.027-.08.08-.08h2.44c.053 0 .1.027.14.08l1.82 2.64 1.82-2.64c.04-.053.087-.08.14-.08h2.46c.053 0 .08.027.08.08l.04 13.74c0 .067-.027.1-.08.1h-2.26c-.053 0-.08-.033-.08-.1l-.02-10.2-2.1 3.04-2.08-3.04-.02 10.2c0 .067-.027.1-.08.1h-2.26zm14.362.2c-.72 0-1.38-.18-1.98-.54a4.373 4.373 0 01-1.42-1.46 3.918 3.918 0 01-.54-2.02l.02-6.34c0-.733.173-1.4.52-2 .36-.6.84-1.08 1.44-1.44a3.74 3.74 0 011.96-.54c.72 0 1.373.18 1.96.54.587.36 1.053.84 1.4 1.44.36.6.54 1.267.54 2l.02 6.34c0 .733-.18 1.407-.54 2.02-.346.6-.82 1.087-1.42 1.46-.587.36-1.24.54-1.96.54zm0-2.42c.4 0 .747-.16 1.04-.48.307-.333.46-.707.46-1.12l-.02-6.34c0-.44-.14-.813-.42-1.12a1.374 1.374 0 00-1.06-.46c-.413 0-.766.153-1.06.46-.293.293-.44.667-.44 1.12v6.34c0 .44.147.82.44 1.14.294.307.647.46 1.06.46zM65.097 15c-.053 0-.08-.033-.08-.1V3.5h-2.6c-.067 0-.1-.033-.1-.1l.02-2.24c0-.053.026-.08.08-.08h7.6c.067 0 .1.027.1.08V3.4c0 .067-.027.1-.08.1h-2.62l.02 11.4c0 .067-.027.1-.08.1h-2.26zm9.259.2c-.72 0-1.38-.18-1.98-.54a4.373 4.373 0 01-1.42-1.46 3.918 3.918 0 01-.54-2.02l.02-6.34c0-.733.173-1.4.52-2 .36-.6.84-1.08 1.44-1.44a3.74 3.74 0 011.96-.54c.72 0 1.373.18 1.96.54.586.36 1.053.84 1.4 1.44.36.6.54 1.267.54 2l.02 6.34c0 .733-.18 1.407-.54 2.02-.347.6-.82 1.087-1.42 1.46-.587.36-1.24.54-1.96.54zm0-2.42c.4 0 .746-.16 1.04-.48.306-.333.46-.707.46-1.12l-.02-6.34c0-.44-.14-.813-.42-1.12a1.374 1.374 0 00-1.06-.46c-.414 0-.767.153-1.06.46-.294.293-.44.667-.44 1.12v6.34c0 .44.146.82.44 1.14.293.307.646.46 1.06.46z" /></symbol><symbol viewBox="0 0 16 17" id="magnifier"><path fill-rule="evenodd" clip-rule="evenodd" d="M6.167 12.561C2.76 12.561 0 9.75 0 6.281 0 2.812 2.76 0 6.167 0c3.405 0 6.166 2.812 6.166 6.28 0 1.49-.509 2.859-1.36 3.936l4.832 4.92c.26.266.26.696 0 .96a.658.658 0 01-.943 0l-4.832-4.92a6.072 6.072 0 01-3.863 1.385zm0-1.358C8.836 11.203 11 8.999 11 6.28S8.836 1.357 6.167 1.357c-2.67 0-4.834 2.204-4.834 4.923s2.164 4.923 4.834 4.923z" /></symbol><symbol viewBox="0 0 24 24" id="person"><path d="M20.823 18.096c-3.44-.794-6.64-1.49-5.09-4.418C20.453 4.766 16.983 0 12 0 6.918 0 3.536 4.949 8.268 13.678c1.597 2.945-1.725 3.641-5.09 4.418C.105 18.806-.01 20.332 0 23l.004 1h23.99l.005-.969c.012-2.688-.092-4.222-3.176-4.935z" /></symbol><symbol viewBox="0 0 17 17" id="sale"><path d="M6.142 1.983c.595.677.892 1.593.892 2.748 0 1.155-.297 2.075-.892 2.758-.595.684-1.391 1.026-2.39 1.026-.997 0-1.793-.342-2.388-1.026C.776 6.806.482 5.886.482 4.731s.294-2.071.882-2.748C1.958 1.299 2.754.958 3.753.958c.998 0 1.794.341 2.39 1.025zm-2.39 4.922c.384 0 .681-.192.893-.574.219-.39.328-.923.328-1.6 0-.684-.11-1.217-.328-1.6-.212-.39-.51-.584-.892-.584-.376 0-.673.195-.892.584-.212.383-.318.916-.318 1.6 0 .677.106 1.21.318 1.6.219.382.516.574.892.574zM3.959 16H1.723l5.732-7.844 5.085-6.952h2.215L9.177 8.843 3.958 16zm11.156-6.347c.595.683.892 1.603.892 2.758s-.297 2.075-.892 2.758c-.595.677-1.39 1.016-2.389 1.016-.998 0-1.794-.339-2.39-1.016-.587-.683-.88-1.603-.88-2.758s.293-2.075.88-2.758c.596-.684 1.392-1.026 2.39-1.026.998 0 1.795.342 2.39 1.026zM11.833 14c.219.39.516.584.892.584s.673-.195.892-.585c.219-.39.328-.922.328-1.6 0-.676-.11-1.21-.328-1.599-.219-.39-.516-.584-.892-.584s-.673.195-.892.584c-.212.39-.318.923-.318 1.6s.106 1.21.318 1.6z" /></symbol><symbol viewBox="0 0 18 22" id="store"><path d="M6.833 13.343a.5.5 0 00-.5.5V19.7a.5.5 0 01-.5.5H1.5a.5.5 0 01-.5-.5V8.087a.5.5 0 01.175-.38l7.5-6.428a.5.5 0 01.65 0l7.5 6.428a.5.5 0 01.175.38V19.7a.5.5 0 01-.5.5h-4.333a.5.5 0 01-.5-.5v-5.857a.5.5 0 00-.5-.5H6.833z" stroke-width="2" stroke-linecap="round" stroke-linejoin="round" /></symbol><symbol viewBox="0 0 30 30" id="vk"><path d="M24.894 16.285c-.485-.613-.346-.885 0-1.433.006-.006 4.01-5.538 4.422-7.415h.003c.205-.684 0-1.187-.991-1.187h-3.28c-.835 0-1.22.431-1.427.914 0 0-1.67 3.997-4.032 6.588-.763.75-1.115.99-1.531.99-.206 0-.524-.24-.524-.925v-6.38c0-.82-.234-1.187-.925-1.187H11.45c-.524 0-.835.383-.835.739 0 .777 1.181.956 1.304 3.144v4.746c0 1.04-.189 1.231-.607 1.231-1.116 0-3.822-4.014-5.426-8.607-.323-.892-.64-1.252-1.48-1.252H1.124C.189 6.251 0 6.682 0 7.165c0 .853 1.115 5.091 5.185 10.691 2.713 3.823 6.532 5.894 10.008 5.894 2.088 0 2.343-.46 2.343-1.251 0-3.653-.189-3.998.858-3.998.485 0 1.32.24 3.27 2.084 2.228 2.186 2.595 3.165 3.842 3.165h3.28c.935 0 1.409-.46 1.136-1.367-.623-1.91-4.838-5.835-5.028-6.098z" /></symbol><symbol viewBox="0 0 30 30" id="youtube"><path d="M13.132 17.81l4.88-2.81-4.88-2.81v5.62z" /><path d="M15 0C6.717 0 0 6.717 0 15c0 8.283 6.717 15 15 15 8.283 0 15-6.717 15-15 0-8.283-6.717-15-15-15zm9.373 15.015s0 3.042-.386 4.51a2.349 2.349 0 01-1.652 1.651c-1.467.387-7.335.387-7.335.387s-5.852 0-7.335-.402a2.349 2.349 0 01-1.652-1.652C5.627 18.057 5.627 15 5.627 15s0-3.042.386-4.509a2.396 2.396 0 011.652-1.667C9.132 8.438 15 8.438 15 8.438s5.868 0 7.334.401c.803.216 1.436.85 1.653 1.652.401 1.467.386 4.524.386 4.524z" /></symbol></defs></svg>